<svg width="157" height="67" viewBox="0 0 157 67" fill="none" xmlns="http://www.w3.org/2000/svg">
<path fill-rule="evenodd" clip-rule="evenodd" d="M30.6376 0L30.4414 0.535867C30.4414 0.535867 30.7116 0.777606 30.8021 0.858185C31.36 1.35629 31.5255 1.62462 31.5255 2.26314L31.5258 16.1686C31.5258 23.6574 33.6827 29.5442 43.0647 29.5442C49.3637 29.5442 54.6191 25.8527 54.6191 17.1087L54.6194 2.26314C54.6194 1.39325 55.2257 0.983974 55.836 0.750746C56.2202 0.603947 56.4045 0.535867 56.4045 0.535867L56.2863 0H49.5422L49.4238 0.535867C49.4238 0.535867 49.6083 0.603947 49.9923 0.750746C50.6026 0.983974 51.2091 1.39325 51.2091 2.26314C51.2091 2.26314 51.5606 15.7574 51.5772 16.8573C51.6875 24.1425 48.5522 27.0428 43.4573 27.0428C38.4746 27.0428 36.4155 23.6614 36.4155 16.873L36.4152 2.25676C36.4163 1.62303 36.5826 1.35443 37.1387 0.858185C37.2291 0.777606 37.4994 0.535867 37.4994 0.535867L37.3032 0H30.6376Z" fill="#D0DED7"/>
<path fill-rule="evenodd" clip-rule="evenodd" d="M10.4867 16.411L14.5367 4.45012L19.0534 16.411H10.4867ZM7.01468 29.0072L7.2112 28.4739L7.05287 28.3754C6.39834 27.9676 6.31374 27.6277 6.59221 26.8898L9.8484 18.1312H19.7546L23.3495 26.8978C23.4929 27.24 23.5616 27.9366 22.914 28.3783L22.7732 28.4739L22.9697 29.0072H30.0645L30.2605 28.4739L30.1777 28.4157C29.4213 27.8805 28.8461 27.0417 28.6562 26.6307L17.5789 0.179199H14.3402L1.7127 26.6326C1.26317 27.4867 0.921323 27.6576 0.361475 28.1534C0.27104 28.2333 0 28.4739 0 28.4739L0.196782 29.0072H7.01468Z" fill="#D0DED7"/>
<path fill-rule="evenodd" clip-rule="evenodd" d="M90.703 16.411L94.7527 4.45012L99.2697 16.411H90.703ZM87.231 29.0072L87.4275 28.4739L87.2692 28.3754C86.6147 27.9676 86.5301 27.6277 86.8088 26.8898L90.0647 18.1312H99.9709L103.566 26.8978C103.709 27.24 103.778 27.9366 103.13 28.3783L102.989 28.4739L103.186 29.0072H110.281L110.477 28.4739L110.394 28.4157C109.638 27.8805 109.062 27.0417 108.873 26.6307L97.7952 0.179199H94.5565L81.929 26.6326C81.4795 27.4867 81.1376 27.6576 80.5778 28.1534C80.4873 28.2333 80.2163 28.4739 80.2163 28.4739L80.4131 29.0072H87.231Z" fill="#D0DED7"/>
<path fill-rule="evenodd" clip-rule="evenodd" d="M66.2318 1.82222H68.4766C75.6143 1.82222 78.4388 4.73654 78.4388 9.17195C78.4388 12.474 76.5977 15.373 72.1833 16.1429C70.8831 16.3698 69.7925 16.4177 68.4787 16.3078C67.9427 16.2634 67.4122 16.1665 66.8909 16.0336L66.2318 15.8658V1.82222ZM60.5433 0.179199L60.3474 0.712517C60.3474 0.712517 60.6173 0.953105 60.7073 1.0333C61.2648 1.52904 61.4301 1.79609 61.4301 2.43157V26.7548C61.4301 27.3903 61.2648 27.6574 60.7073 28.1531C60.6173 28.2333 60.3474 28.4739 60.3474 28.4739L60.5433 29.0072H67.1194L67.3156 28.4739C67.3156 28.4739 67.0455 28.2333 66.9554 28.1531C66.398 27.6574 66.2327 27.3903 66.2327 26.7548V17.5894C66.2327 17.5894 68.2768 18.2098 71.6128 18.2098C79.1123 18.2098 83.0875 14.1357 83.0875 9.17202C83.0875 3.80179 78.7882 0.179199 70.8652 0.179199H60.5433Z" fill="#D0DED7"/>
<path fill-rule="evenodd" clip-rule="evenodd" d="M112.646 0.178955L112.449 0.712273C112.449 0.712273 112.72 0.952861 112.811 1.03306C113.37 1.52879 113.536 1.79585 113.536 2.43133V2.43133V26.7546V26.7546C113.536 27.3901 113.37 27.6571 112.811 28.1529C112.72 28.2331 112.449 28.4736 112.449 28.4736L112.646 29.007H132.145V25.0064L131.611 24.8087C130.753 25.7255 129.959 25.7417 129.238 25.8063L119.431 26.8533C118.865 26.9224 118.357 26.4431 118.357 25.8629V2.42498C118.358 1.79426 118.524 1.52694 119.082 1.03306C119.172 0.952861 119.443 0.712273 119.443 0.712273L119.246 0.178955H112.646Z" fill="#D0DED7"/>
<path fill-rule="evenodd" clip-rule="evenodd" d="M156.138 29.007V25.0064L155.608 24.8087L155.549 24.8722C155.399 25.0353 155.239 25.1689 155.08 25.2785C154.659 25.5691 154.163 25.7327 153.654 25.7742L141.942 26.8528C141.367 26.8996 140.874 26.4428 140.874 25.8626V14.866L151.127 15.1778C151.448 15.1902 152.115 15.4093 152.673 16.0483L152.735 16.1158L153.265 15.9196V11.9022L152.734 11.7063L152.668 11.778C152.089 12.4405 151.404 12.607 151.115 12.616L140.874 12.9553V2.18148L153.341 3.43815C153.56 3.45668 154.323 3.5681 154.894 4.29622L154.964 4.37456L155.493 4.17897V0.178955H135.205L135.01 0.712273C135.01 0.712273 135.279 0.952861 135.369 1.03306C135.924 1.52853 136.089 1.79558 136.089 2.43027V26.7556C136.089 27.3903 135.924 27.6574 135.369 28.1529C135.279 28.2331 135.01 28.4736 135.01 28.4736L135.205 29.007H156.138Z" fill="#D0DED7"/>
<path fill-rule="evenodd" clip-rule="evenodd" d="M31.5944 37.8957L31.6928 37.8275L31.5759 37.1251H24.6733L24.4784 37.6548C25.3147 38.1732 25.4681 38.4517 25.1534 39.3078L16.7658 61.6135L7.60109 39.2986C7.44027 38.8885 7.52888 38.194 8.29172 37.7638C8.33166 37.7412 8.49592 37.6532 8.49592 37.6532L8.29754 37.1257L0.729937 37.1249L0.537109 37.6548C1.47268 38.2716 2.08184 39.1786 2.45242 40.0318L13.6488 65.7738H17.0475L30.1277 39.4547C30.2716 39.1675 30.7623 38.4725 31.5944 37.8957" fill="#D0DED7"/>
<path fill-rule="evenodd" clip-rule="evenodd" d="M73.1617 63.9704H71.333C70.6833 63.9704 70.1561 63.4446 70.1556 62.7957L70.1385 38.6418H72.9869C81.2777 38.6418 85.1435 42.6327 85.1509 51.2247C85.158 59.3182 80.5243 63.9638 73.1617 63.9704M75.7313 37.1249H64.2972L64.1016 37.6548C64.1016 37.6548 64.3711 37.8939 64.461 37.9737C65.0168 38.4662 65.1819 38.7319 65.1819 39.3632V63.5355C65.1819 64.1668 65.0168 64.4325 64.461 64.925C64.3711 65.0048 64.1016 65.2436 64.1016 65.2436L64.2972 65.7738H75.3901C79.7677 65.7738 84.1271 64.343 86.7232 61.7779C89.3435 59.1903 90.7846 55.5371 90.7809 51.4925C90.7732 42.8123 84.737 37.1249 75.7313 37.1249" fill="#D0DED7"/>
<path fill-rule="evenodd" clip-rule="evenodd" d="M54.2058 61.0045C52.5808 62.6266 50.5642 63.4833 48.3734 63.4833H48.359C45.4794 63.4783 42.4187 61.9927 39.7388 59.2997C33.917 53.4559 33.0793 46.4613 37.6543 41.8948C39.2793 40.2728 41.296 39.416 43.4867 39.416H43.5011C46.3807 39.4207 49.4417 40.9069 52.1214 43.5993C57.9431 49.4434 58.7809 56.438 54.2058 61.0045M46.168 36.2295C42.4915 36.2295 38.834 37.7149 36.1335 40.304C32.9245 43.3931 31.157 47.4117 31.157 51.6195C31.157 59.6364 37.9478 66.669 45.6899 66.669C54.1074 66.669 60.7012 59.9238 60.7012 51.3127C60.7012 42.9959 54.1816 36.2295 46.168 36.2295" fill="#D0DED7"/>
<path fill-rule="evenodd" clip-rule="evenodd" d="M134.301 53.2445L138.737 41.3467L143.64 53.2445H134.301ZM155.338 65.1852C154.582 64.6531 154.007 63.8185 153.818 63.4099L141.776 37.1249H138.54L128.237 57.9447L128.24 57.936C128.24 57.936 128.158 58.1016 128.023 58.3777L126.376 61.7097C126.032 62.3984 125.638 63.1551 125.384 63.6426C125.125 64.0849 124.622 64.7397 123.989 65.1852L123.907 65.2431L124.103 65.7738H124.801H128.583H130.832L131.028 65.2431L130.87 65.1451C130.216 64.7394 130.131 64.4017 130.41 63.6677L133.663 54.9552H144.34L148.516 63.6753C148.66 64.0157 148.728 64.7089 148.081 65.1483L147.94 65.2431L148.137 65.7738H155.225L155.421 65.2431L155.338 65.1852Z" fill="#D0DED7"/>
<path fill-rule="evenodd" clip-rule="evenodd" d="M120.116 62.7831C119.63 62.0288 110.123 47.0339 110.123 47.0339C110.123 47.0339 120.616 37.9818 121.147 37.8328L120.988 37.1249L113.516 37.1251L113.294 37.7967L113.431 37.8586C113.598 37.9347 113.803 38.0653 113.803 38.2762C113.803 38.5868 113.48 38.8949 113.256 39.1339C110.667 41.8993 101.488 51.8523 101.488 51.8523L101.488 39.3593C101.489 38.7308 101.654 38.4652 102.21 37.9737C102.3 37.8939 102.569 37.6548 102.569 37.6548L102.374 37.1249H95.6329L95.437 37.6548C95.437 37.6548 95.7068 37.8939 95.7968 37.9737C96.3534 38.4662 96.5184 38.7319 96.5184 39.3632H96.5187V63.5355H96.5184C96.5184 64.1671 96.3534 64.4327 95.7968 64.9253C95.7068 65.0048 95.437 65.2441 95.437 65.2441L95.6329 65.7738H102.374L102.569 65.2441C102.569 65.2441 102.3 65.0048 102.21 64.9253C101.654 64.433 101.488 64.1673 101.488 63.5368V54.3621L106.776 49.7366L114.926 63.6537C114.926 63.6537 115.357 64.3324 115.357 64.6225C115.357 64.8334 115.151 64.964 114.984 65.0398L114.848 65.1022L115.069 65.7736H116.293V65.7738H117.1V65.7738H119.51H119.51H121.328H121.904V65.7736H121.921L122.116 65.2433L122.034 65.1854C121.281 64.6533 120.602 63.5373 120.116 62.7831" fill="#D0DED7"/>
</svg>
