<svg xmlns="http://www.w3.org/2000/svg" version="1.1" xmlns:xlink="http://www.w3.org/1999/xlink" width="250" height="250"><svg width="250" height="250" viewBox="0 0 250 250" fill="none" xmlns="http://www.w3.org/2000/svg">
<path fill-rule="evenodd" clip-rule="evenodd" d="M236.813 75.8144C231.517 60.5753 222.439 46.4791 211.091 35.0498C205.417 29.3352 198.987 24.0016 192.178 19.8108C186.126 14.8581 178.939 11.0484 171.374 8.38153L165.7 6.09563L160.026 4.57173C158.135 3.80978 156.243 3.42881 154.352 3.04783C152.082 2.66686 150.191 2.28586 148.3 1.90488C140.356 0.380975 132.413 0 124.469 0C116.526 0.380977 108.204 1.5239 100.639 3.80976C92.6952 6.09562 85.5082 8.76244 78.3213 12.5722C71.1343 16.382 64.7039 20.5727 58.6517 25.5254C52.5995 30.4781 46.9256 35.8118 41.6299 41.5265C31.0386 52.9558 22.3385 66.2899 16.2863 80.3861C15.1516 83.8149 13.6385 87.6246 12.5037 91.4344C11.7472 93.3392 10.9907 95.2442 10.6124 97.1491C9.85588 99.054 9.4776 100.959 9.09934 102.864C7.20803 110.483 6.07323 118.484 5.31671 126.484C4.18192 142.104 6.07324 158.867 11.3689 174.106C16.6646 189.726 24.9864 204.203 36.3342 216.014C47.6821 227.824 61.6778 237.348 76.8082 243.063C91.9387 248.778 108.582 251.064 124.469 249.54C132.791 248.778 140.356 247.254 148.3 245.349C155.865 243.063 163.43 240.015 170.239 236.205C184.235 228.967 196.717 219.062 207.309 207.632C217.9 196.203 226.222 182.869 232.652 168.392C235.678 161.153 238.326 153.915 240.217 146.295C242.109 138.676 243.243 130.675 244 122.674C244 107.435 242.109 91.0534 236.813 75.8144ZM113.5 50.2889C119.174 44.5743 124.847 39.2406 130.521 33.9069C134.682 30.0972 143.004 22.0966 143.004 22.0966C143.004 22.0966 147.543 23.2396 149.056 23.6205C150.191 24.0015 152.839 24.7635 153.974 25.1445C154.73 25.5255 158.135 26.6684 158.135 26.6684L163.052 28.1922C169.104 30.4781 175.156 33.526 180.83 36.9548C186.504 40.3835 191.8 44.5743 196.717 49.146C201.635 53.7177 206.174 58.6704 209.956 64.3851C213.739 70.0997 217.143 75.8143 219.791 81.9099C220.548 83.4339 220.926 84.9578 221.683 86.8627C211.091 87.6246 200.5 88.3866 189.909 88.7676C175.913 89.5295 162.295 89.5295 148.3 89.5295C134.304 89.5295 120.687 89.5295 107.069 88.7676C97.2344 88.3866 87.7778 88.0057 77.943 87.2437C77.943 87.6247 104.421 59.4324 113.5 50.2889ZM58.6517 89.5295C52.2212 96.0061 45.7907 102.483 39.3603 108.959C32.9298 115.055 26.8777 120.77 20.8255 126.484C20.8255 119.627 21.2037 112.769 22.3385 105.912C22.7168 104.007 23.095 102.483 23.4733 100.578C23.8516 99.054 24.2298 97.53 24.6081 95.6251C25.7428 92.1963 26.8777 88.7676 28.0125 85.7198C32.9299 72.3856 40.4951 59.8133 49.9517 49.527C54.8691 44.1933 60.1647 39.6216 65.8386 35.8118C71.8908 32.002 77.943 28.9542 84.3735 26.2874C96.8561 21.7157 109.717 19.8108 122.2 19.8108C121.065 20.9537 120.308 22.0967 119.552 23.2396C114.256 29.3352 109.339 35.0499 104.043 40.7645C93.83 52.5748 83.2387 64.0041 72.2691 75.0525C68.1082 79.2432 64.3256 83.4339 60.1647 87.2437L58.6517 89.5295ZM44.656 124.96C44.656 124.96 48.0603 121.151 49.9517 118.865C54.4908 113.531 59.0299 108.578 63.5691 103.626C69.9995 110.864 76.0517 117.722 82.1039 125.341C80.5908 125.722 79.4561 125.722 77.943 125.722C72.6474 126.103 66.9734 126.484 61.6777 126.103C53.356 126.103 44.656 124.96 44.656 124.96ZM122.578 229.729C95.7213 228.967 69.9996 218.3 51.4647 199.632C42.0082 190.488 34.4429 179.44 29.1472 166.868C26.8777 161.534 24.9863 155.819 23.4733 150.105C26.1211 146.676 28.769 143.628 31.4168 140.199C33.3081 139.818 34.8212 139.437 36.7125 139.056C39.3603 138.295 42.3864 137.914 45.0343 137.533C50.3299 136.771 56.0038 136.39 61.2995 136.009C66.9734 135.628 72.2691 136.009 77.5648 136.771C80.2126 137.152 83.2387 137.533 85.8865 137.914C88.5344 138.675 91.1822 139.056 93.4518 139.818C99.8822 148.2 106.313 156.2 112.743 164.963C121.065 176.011 129.387 187.822 136.952 199.251C140.734 204.966 144.517 211.061 148.3 216.776C150.191 219.824 152.082 222.871 153.595 225.919C143.382 228.967 132.791 230.11 122.578 229.729ZM223.196 152.01C215.63 154.296 185.748 155.82 175.156 155.82C164.187 155.82 125.982 154.296 116.904 152.01C108.204 140.961 104.043 135.628 95.7213 124.198C90.0474 116.579 84.7517 108.959 79.4561 100.959C88.5344 100.197 97.6126 99.8159 107.069 99.435C120.687 99.054 134.682 98.673 148.3 98.673C162.295 98.673 175.913 99.054 189.909 99.435C202.013 100.197 213.739 100.578 225.843 101.721C226.978 108.197 227.735 115.055 227.356 121.913C227.356 131.818 225.465 141.723 223.196 152.01ZM217.522 166.868C217.522 166.868 212.604 182.107 199.365 196.203C192.178 203.823 181.587 212.966 173.265 217.157C169.104 213.347 165.322 209.537 161.917 205.346C151.704 195.06 139.978 181.345 127.874 166.106C132.791 164.963 167.213 164.582 174.778 164.582C183.1 164.963 208.822 165.344 217.522 166.868Z" fill="#0D1015"></path>
</svg><style>@media (prefers-color-scheme: light) { :root { filter: none; } }
@media (prefers-color-scheme: dark) { :root { filter: invert(100%); } }
</style></svg>